<svg width="48" height="48" viewBox="0 0 48 48" fill="none" xmlns="http://www.w3.org/2000/svg">
<path d="M39 6H9C7.34315 6 6 7.34315 6 9V39C6 40.6569 7.34315 42 9 42H39C40.6569 42 42 40.6569 42 39V9C42 7.34315 40.6569 6 39 6Z" stroke="white" stroke-width="4" stroke-linecap="round" stroke-linejoin="round"/>
<path d="M21 17H13V31H20.5M13 24H20.5M26 19V31V24.5C26 23.3065 26.4741 22.1619 27.318 21.318C28.1619 20.4741 29.3065 20 30.5 20C31.6935 20 32.8381 20.4741 33.682 21.318C34.5259 22.1619 35 23.3065 35 24.5V31" stroke="white" stroke-width="4" stroke-linecap="round" stroke-linejoin="round"/>
</svg>
